<?xml version="1.0" encoding="UTF-8" standalone="no"?>
<svg
   xmlns:dc="http://purl.org/dc/elements/1.1/"
   xmlns:cc="http://creativecommons.org/ns#"
   xmlns:rdf="http://www.w3.org/1999/02/22-rdf-syntax-ns#"
   xmlns:svg="http://www.w3.org/2000/svg"
   xmlns="http://www.w3.org/2000/svg"
   viewBox="0 0 456.25 277.5"
   height="277.5"
   width="456.25"
   version="1.1"
   id="svg4190">
  <metadata
     id="metadata4196">
    <rdf:RDF>
      <cc:Work
         rdf:about="">
        <dc:format>image/svg+xml</dc:format>
        <dc:type
           rdf:resource="http://purl.org/dc/dcmitype/StillImage" />
        <dc:title></dc:title>
      </cc:Work>
    </rdf:RDF>
  </metadata>
  <defs
     id="defs4194" />
  <g
     id="g4200">
    <path
       id="path4216"
       d="M 0,138.75 0,0 228.125,0 456.25,0 l 0,138.75 0,138.75 -228.125,0 L 0,277.5 0,138.75 Z"
       style="fill:#f6f200" />
    <path
       id="path4214"
       d="M 0,138.75 0,0 l 76.25,0 76.25,0 0,138.75 0,138.75 -76.25,0 -76.25,0 0,-138.75 z m 235,0 L 235,0 345.625,0 456.25,0 l 0,138.75 0,138.75 -110.625,0 -110.625,0 0,-138.75 z"
       style="fill:#3dbcef" />
    <path
       id="path4212"
       d="M 0,138.75 0,0 l 76.25,0 76.25,0 0,138.75 0,138.75 -76.25,0 -76.25,0 0,-138.75 z m 235,0 0,-138.75 76.25,0 76.25,0 0,138.75 0,138.75 -76.25,0 -76.25,0 0,-138.75 z"
       style="fill:#f18906" />
    <path
       id="path4210"
       d="M 0,138.75 0,0 38.125,0 76.25,0 l 0,138.75 0,138.75 -38.125,0 L 0,277.5 0,138.75 Z m 78.103581,0 c 0,-76.65625 0.150168,-108.015625 0.333704,-69.6875 0.183537,38.32813 0.183537,101.04687 0,139.375 -0.183536,38.32812 -0.333704,6.96875 -0.333704,-69.6875 z M 80,138.75 80,0 l 35.625,0 35.625,0 0,138.75 0,138.75 -35.625,0 -35.625,0 0,-138.75 z m 155,0 0,-138.75 76.25,0 76.25,0 0,138.75 0,138.75 -76.25,0 -76.25,0 0,-138.75 z"
       style="fill:#ec8a05" />
    <path
       id="path4208"
       d="M 0,138.75 0,0 36.25,0 72.5,0 l 0,138.75 0,138.75 -36.25,0 -36.25,0 0,-138.75 z m 235,0 0,-138.75 76.25,0 76.25,0 0,138.75 0,138.75 -76.25,0 -76.25,0 0,-138.75 z"
       style="fill:#7ac522" />
    <path
       id="path4206"
       d="M 0,138.75 0,0 36.25,0 72.5,0 l 0,138.75 0,138.75 -36.25,0 -36.25,0 0,-138.75 z m 313.75,0 0,-138.75 36.875,0 36.875,0 0,138.75 0,138.75 -36.875,0 -36.875,0 0,-138.75 z"
       style="fill:#de0023" />
    <path
       id="path4204"
       d="m 313.75,138.75 0,-138.75 36.875,0 36.875,0 0,138.75 0,138.75 -36.875,0 -36.875,0 0,-138.75 z"
       style="fill:#00a333" />
    <path
       id="path4202"
       d="m 315.60359,138.75 c 0,-76.65625 0.15016,-108.015625 0.3337,-69.6875 0.18353,38.32813 0.18353,101.04687 0,139.375 -0.18354,38.32812 -0.3337,6.96875 -0.3337,-69.6875 z m 2.5,0 c 0,-76.65625 0.15016,-108.015625 0.3337,-69.6875 0.18353,38.32813 0.18353,101.04687 0,139.375 -0.18354,38.32812 -0.3337,6.96875 -0.3337,-69.6875 z m 68.75,0 c 0,-76.65625 0.15016,-108.015625 0.3337,-69.6875 0.18353,38.32813 0.18353,101.04687 0,139.375 -0.18354,38.32812 -0.3337,6.96875 -0.3337,-69.6875 z"
       style="fill:#01a42f" />
  </g>
</svg>
